<svg width="141" height="35" viewBox="0 0 141 35" fill="none" xmlns="http://www.w3.org/2000/svg">
<path d="M17.5226 35C27.2 35 35.0452 27.165 35.0452 17.5C35.0452 7.83502 27.2 0 17.5226 0C7.84513 0 0 7.83502 0 17.5C0 27.165 7.84513 35 17.5226 35Z" fill="#FF3C3C"/>
<path d="M5.44873 17.4456L8.1432 14.7743L10.8179 17.4456H5.44873Z" fill="white"/>
<path d="M8.83936 14.1775L12.1708 17.4455H16.1871L10.8264 12.0917L8.83936 14.1775Z" fill="white"/>
<path d="M14.2029 14.1775L17.5371 17.4455H21.5506L16.1899 12.0917L14.2029 14.1775Z" fill="white"/>
<path d="M29.0001 18.3435L26.3056 21.0148L23.6309 18.3435H29.0001Z" fill="white"/>
<path d="M25.6122 21.6115L22.2779 18.3435H18.2644L23.6251 23.6973L25.6122 21.6115Z" fill="white"/>
<path d="M20.2457 21.6115L16.9143 18.3435H12.8979L18.2615 23.6973L20.2457 21.6115Z" fill="white"/>
<path fill-rule="evenodd" clip-rule="evenodd" d="M73.2095 19.5094C73.5836 20.1271 74.1196 20.6309 74.7597 20.9662C75.4459 21.3074 76.202 21.485 76.9685 21.485C77.735 21.485 78.4911 21.3074 79.1773 20.9662C79.8174 20.6309 80.3535 20.1271 80.7275 19.5094C81.1015 18.8916 81.2992 18.1835 81.2992 17.4616C81.2992 16.7397 81.1015 16.0316 80.7275 15.4139C80.3535 14.7961 79.8174 14.2923 79.1773 13.957C78.4911 13.6158 77.735 13.4382 76.9685 13.4382C76.202 13.4382 75.4459 13.6158 74.7597 13.957C74.1196 14.2923 73.5836 14.7961 73.2095 15.4139C72.8355 16.0316 72.6378 16.7397 72.6378 17.4616C72.6378 18.1835 72.8355 18.8916 73.2095 19.5094ZM78.7838 18.6175C78.6094 18.9418 78.3488 19.2116 78.0306 19.3974C77.706 19.5786 77.3404 19.6738 76.9685 19.6738C76.5966 19.6738 76.231 19.5786 75.9064 19.3974C75.5882 19.2116 75.3276 18.9418 75.1532 18.6175C74.9715 18.2593 74.8767 17.8633 74.8767 17.4616C74.8767 17.06 74.9715 16.664 75.1532 16.3057C75.3277 15.9823 75.5884 15.7134 75.9064 15.5289C76.231 15.3477 76.5966 15.2525 76.9685 15.2525C77.3404 15.2525 77.706 15.3477 78.0306 15.5289C78.3487 15.7134 78.6094 15.9823 78.7838 16.3057C78.9656 16.664 79.0603 17.06 79.0603 17.4616C79.0603 17.8633 78.9656 18.2593 78.7838 18.6175ZM54.0677 20.9662C53.4268 20.6317 52.8898 20.1281 52.5151 19.5103C52.1404 18.8925 51.9423 18.184 51.9423 17.4616C51.9423 16.7393 52.1404 16.0308 52.5151 15.413C52.8898 14.7951 53.4268 14.2916 54.0677 13.957C54.7534 13.6158 55.5089 13.4383 56.275 13.4383C57.041 13.4383 57.7966 13.6158 58.4822 13.957C59.1223 14.2923 59.6584 14.7961 60.0324 15.4139C60.4064 16.0316 60.6041 16.7397 60.6041 17.4616C60.6041 18.1835 60.4064 18.8917 60.0324 19.5094C59.6584 20.1271 59.1223 20.6309 58.4822 20.9662C57.7966 21.3074 57.041 21.485 56.275 21.485C55.5089 21.485 54.7534 21.3074 54.0677 20.9662ZM57.3355 19.3974C57.6582 19.2134 57.9233 18.9434 58.101 18.6176C58.2828 18.2593 58.3775 17.8633 58.3775 17.4616C58.3775 17.06 58.2828 16.664 58.101 16.3057C57.9266 15.9823 57.6659 15.7135 57.3478 15.529C57.0233 15.3477 56.6576 15.2526 56.2857 15.2526C55.9139 15.2526 55.5482 15.3477 55.2236 15.529C54.9056 15.7135 54.6449 15.9823 54.4705 16.3057C54.2887 16.664 54.194 17.06 54.194 17.4616C54.194 17.8633 54.2887 18.2593 54.4705 18.6176C54.6448 18.9418 54.9055 19.2116 55.2236 19.3974C55.5482 19.5786 55.9139 19.6738 56.2857 19.6738C56.6576 19.6738 57.0233 19.5786 57.3478 19.3974H57.3355ZM48.5712 21.3316V17.2298L46.57 20.5702H45.5955L43.6126 17.3434V21.3346H41.5898V13.5947H43.3913L46.1119 18.0588L48.768 13.5947H50.5725L50.594 21.3316H48.5712ZM61.1106 15.3294H63.49V21.3316H65.6818V15.3294H68.0489V13.5947H61.1106V15.3294ZM69.0911 13.5947H71.2799V21.3316H69.0911V13.5947ZM90.0168 13.5947V21.3316H88.2277L84.7939 17.2083V21.3316H82.642V13.5947H84.4465L87.8711 17.7149V13.5947H90.0168ZM101.391 21.3316L103.906 13.5947H101.831L100.204 18.5776L98.6427 13.5947H96.6291L94.9906 18.5346L93.4259 13.5947H91.1664L93.681 21.3316H96.0266L97.5637 16.6219L99.0454 21.3316H101.391ZM109.848 19.8272H106.574L105.959 21.3316H103.721L107.143 13.5947H109.295L112.725 21.3316H110.444L109.848 19.8272ZM109.205 18.2123L108.209 15.7377L107.213 18.2123H109.205ZM115.769 19.2746H116.965L118.382 21.3438H120.727L119.058 18.9123C119.518 18.6994 119.907 18.3596 120.18 17.9329C120.382 17.5949 120.511 17.2184 120.558 16.8276C120.605 16.4368 120.57 16.0405 120.454 15.6643C120.338 15.2881 120.144 14.9404 119.885 14.6436C119.626 14.3469 119.308 14.1077 118.951 13.9417C118.374 13.6974 117.751 13.5792 117.125 13.5947H113.577V21.3316H115.769V19.2746ZM116.986 15.3079C117.351 15.2842 117.713 15.3932 118.004 15.6149C118.122 15.7198 118.214 15.8499 118.275 15.9956C118.336 16.1412 118.363 16.2986 118.354 16.4561C118.359 16.6087 118.331 16.7605 118.27 16.9006C118.209 17.0407 118.118 17.1657 118.004 17.2667C117.712 17.4866 117.351 17.5955 116.986 17.5737H115.757V15.3079H116.986ZM128.21 19.6491V21.3408H121.988V13.5947H128.065V15.2833H124.158V16.5789H127.601V18.2153H124.158V19.6491H128.21ZM129.104 20.6377C129.544 20.9254 130.031 21.1333 130.543 21.2517C131.138 21.4139 131.752 21.4975 132.369 21.5004C133.013 21.5175 133.653 21.4025 134.25 21.1627C134.715 20.9786 135.118 20.6667 135.412 20.2632C135.667 19.8857 135.797 19.438 135.784 18.9829C135.809 18.52 135.657 18.065 135.36 17.7088C135.085 17.4017 134.739 17.1657 134.352 17.021C133.873 16.8538 133.383 16.7195 132.886 16.6189C132.497 16.5505 132.115 16.4478 131.745 16.3118C131.644 16.2814 131.556 16.2198 131.492 16.1359C131.429 16.0521 131.394 15.9503 131.392 15.8452C131.393 15.7418 131.422 15.6408 131.476 15.5527C131.53 15.4647 131.607 15.3928 131.699 15.3447C131.993 15.1944 132.323 15.1275 132.652 15.1513C133.408 15.1659 134.148 15.3708 134.804 15.7469L135.48 14.1228C135.072 13.8917 134.632 13.7239 134.174 13.6254C133.68 13.5114 133.174 13.4537 132.667 13.4535C132.023 13.435 131.382 13.5479 130.783 13.7851C130.317 13.968 129.915 14.2814 129.624 14.6877C129.367 15.0626 129.231 15.5075 129.237 15.9618C129.212 16.4271 129.362 16.8849 129.658 17.2452C129.93 17.5565 130.277 17.7941 130.666 17.936C131.142 18.1049 131.63 18.2393 132.126 18.3382C132.521 18.4158 132.908 18.5288 133.282 18.6759C133.386 18.7099 133.477 18.7756 133.541 18.8637C133.606 18.9518 133.641 19.0579 133.642 19.1671C133.642 19.5887 133.222 19.7996 132.381 19.7996C131.475 19.784 130.59 19.5195 129.824 19.0351L129.104 20.6377Z" fill="#FF3C3C"/>
</svg>
